<?xml version="1.0" encoding="utf-8"?>
<!-- Generator: Adobe Illustrator 24.1.1, SVG Export Plug-In . SVG Version: 6.00 Build 0)  -->
<svg version="1.1" id="Capa_1" xmlns="http://www.w3.org/2000/svg" xmlns:xlink="http://www.w3.org/1999/xlink" x="0px" y="0px"
	 viewBox="0 0 50 50" style="enable-background:new 0 0 50 50;" xml:space="preserve">
<style type="text/css">
	.st0{fill:#002BFF;}
</style>
<g id="Grupo_286" transform="translate(12.024 2.993)">
	<g id="Grupo_285">
		<path id="Trazado_266" class="st0" d="M13,2.9c-0.8,0-1.5,0.7-1.5,1.5s0.7,1.5,1.5,1.5c4.8,0,8.8,3.9,8.8,8.8
			c0,0.8,0.7,1.5,1.5,1.5s1.5-0.7,1.5-1.5C24.7,8.1,19.4,2.9,13,2.9z"/>
	</g>
</g>
<g id="Grupo_288" transform="translate(3.793 0)">
	<g id="Grupo_287">
		<path id="Trazado_267" class="st0" d="M17.4,0.4C8,2.5,2,11.8,4,21.3c0.6,2.9,2,5.7,4,7.9c1.8,2.1,2.9,4.7,2.9,7.5v2.9
			c0,1.9,1.2,3.6,3,4.2c0.6,4,4.4,6.7,8.4,6.1c3.1-0.5,5.6-2.9,6.1-6.1c1.8-0.6,3-2.3,3-4.2v-2.9c0-2.8,1.1-5.5,3-7.6
			c6.4-7.3,5.6-18.4-1.7-24.8C28.6,0.7,22.9-0.8,17.4,0.4z M21.2,47.1c-1.9,0-3.5-1.3-4.1-3h8.3C24.7,45.8,23.1,47,21.2,47.1z
			 M28.5,39.7c0,0.8-0.7,1.5-1.5,1.5H15.4c-0.8,0-1.5-0.7-1.5-1.5v-1.5h14.6L28.5,39.7z M32.2,27.2c-2,2.2-3.3,5.1-3.6,8H13.8
			c-0.3-3-1.6-5.7-3.5-8c-5.4-6-4.8-15.3,1.2-20.7s15.3-4.8,20.7,1.2C37.1,13.4,37.1,21.7,32.2,27.2L32.2,27.2z"/>
	</g>
</g>
<g id="Grupo_290" transform="translate(0 8.98)">
	<g id="Grupo_289">
		<path id="Trazado_268" class="st0" d="M4.4,8.6H1.5C0.7,8.6,0,9.3,0,10.1s0.7,1.5,1.5,1.5h2.9c0.8,0,1.5-0.7,1.5-1.5
			S5.2,8.6,4.4,8.6L4.4,8.6z"/>
	</g>
</g>
<g id="Grupo_292" transform="translate(0.219 3.96)">
	<g id="Grupo_291">
		<path id="Trazado_269" class="st0" d="M4.8,6.3L2.7,4.2c-0.6-0.6-1.5-0.6-2.1,0c-0.6,0.6-0.6,1.5,0,2.1l2.1,2.1
			c0.6,0.6,1.5,0.6,2.1,0S5.4,6.9,4.8,6.3z"/>
	</g>
</g>
<g id="Grupo_294" transform="translate(0.219 12.942)">
	<g id="Grupo_293">
		<path id="Trazado_270" class="st0" d="M4.8,12.8c-0.6-0.6-1.5-0.6-2.1,0c0,0,0,0,0,0l-2.1,2.1c-0.6,0.6-0.6,1.5,0,2.1
			c0.6,0.6,1.5,0.6,2.1,0l2.1-2.1C5.4,14.3,5.4,13.4,4.8,12.8C4.8,12.8,4.8,12.8,4.8,12.8z"/>
	</g>
</g>
<g id="Grupo_296" transform="translate(22.553 8.98)">
	<g id="Grupo_295">
		<path id="Trazado_271" class="st0" d="M26,8.6H23c-0.8,0-1.5,0.7-1.5,1.5s0.7,1.5,1.5,1.5H26c0.8,0,1.5-0.7,1.5-1.5
			S26.8,8.6,26,8.6L26,8.6z"/>
	</g>
</g>
<g id="Grupo_298" transform="translate(22.772 3.96)">
	<g id="Grupo_297">
		<path id="Trazado_272" class="st0" d="M26.4,4.2c-0.6-0.6-1.5-0.6-2.1,0c0,0,0,0,0,0l-2.1,2.1c-0.6,0.6-0.6,1.5,0,2.1
			c0.6,0.6,1.5,0.6,2.1,0l2.1-2.1C26.9,5.7,26.9,4.8,26.4,4.2z"/>
	</g>
</g>
<g id="Grupo_300" transform="translate(22.772 12.942)">
	<g id="Grupo_299">
		<path id="Trazado_273" class="st0" d="M26.4,14.9l-2.1-2.1c-0.6-0.6-1.5-0.6-2.1,0c-0.6,0.6-0.6,1.5,0,2.1l0,0l2.1,2.1
			c0.6,0.6,1.5,0.6,2.1,0S26.9,15.5,26.4,14.9z"/>
	</g>
</g>
</svg>
