<?xml version="1.0" encoding="utf-8"?>
<!-- Generator: Adobe Illustrator 24.1.1, SVG Export Plug-In . SVG Version: 6.00 Build 0)  -->
<svg version="1.1" id="Capa_1" xmlns="http://www.w3.org/2000/svg" xmlns:xlink="http://www.w3.org/1999/xlink" x="0px" y="0px"
	 viewBox="0 0 50 50" style="enable-background:new 0 0 50 50;" xml:space="preserve">
<style type="text/css">
	.st0{fill:#85A6FF;}
	.st1{opacity:0.88;fill:#F1F4FB;enable-background:new    ;}
</style>
<g id="Grupo_405" transform="translate(-94 6)">
	<g transform="matrix(1, 0, 0, 1, 94, -6)">
		<circle id="cobro-JDJIDtZNJsM-unsplash-2" class="st0" cx="25" cy="25" r="25"/>
	</g>
	<path id="Intersección_1" class="st1" d="M102.4,37.7c1-6.5,8.2-11.8,17-11.8c8.8,0,15.6,5.2,16.7,11.3
		c-4.6,4.4-10.8,6.8-17.1,6.8C112.9,44,106.9,41.8,102.4,37.7z M111,16.5c0-4.7,3.8-8.5,8.5-8.5l0,0c4.7,0,8.5,3.8,8.5,8.5l0,0
		c0,4.7-3.8,8.5-8.5,8.5l0,0C114.8,25,111,21.2,111,16.5L111,16.5z"/>
</g>
</svg>
